<svg width="860" height="613" viewBox="0 0 860 613" class="keymap" xmlns="http://www.w3.org/2000/svg" xmlns:xlink="http://www.w3.org/1999/xlink">
<style>svg path { fill: inherit; }

svg.keymap {
    --color-bg:      #7c6f64;
    --color-key:     #fbf1c7;
    --color-text:    #3c3836;
    --color-ghost:   #928374;
    --color-dendron: #d5c4a1;
    --color-held:    #bdae93;

    --color-app:     #458588;
    --color-nav:     #d79921;
    --color-num:     #d65d0e;
    --color-sym:     #689d6a;

    fill: var(--color-text);
    background-color: var(--color-bg);
    font-family: Calibri, system-ui, sans-serif;
    font-size: 16px;
    font-kerning: normal;
    text-rendering: optimizeLegibility;
}

text {
    text-anchor: middle;
    dominant-baseline: middle;
    letter-spacing: 0.02em;
}

text.tap     { font-weight: 500; }
text.hold    { font-weight: 400; font-size: 13px; }
text.shifted { font-weight: 400; font-size: 11px; }
text.combo, text.left, text.right, text.tl, text.tr, text.bl, text.br { font-size: 10px; }
.layer-Dsend .keypos-12 text.tap,
.layer-Dsend .keypos-12 text.hold,
.layer-Dsend .keypos-23 text.tap,
.layer-Dsend .keypos-23 text.hold,
.layer-Qwerty .keypos-12 text.tap,
.layer-Qwerty .keypos-12 text.hold,
.layer-Qwerty .keypos-23 text.tap,
.layer-Qwerty .keypos-23 text.hold { font-size: 13px; }

.layer-Dsend .keypos-13 text.hold,
.layer-Dsend .keypos-14 text.hold,
.layer-Dsend .keypos-15 text.hold,
.layer-Dsend .keypos-16 text.hold,
.layer-Qwerty .keypos-13 text.hold,
.layer-Qwerty .keypos-14 text.hold,
.layer-Qwerty .keypos-15 text.hold,
.layer-Qwerty .keypos-16 text.hold {
    font-size: 10px;
    text-anchor: start;
    dominant-baseline: middle;
    transform: translate(-24px, -21px);
}

.layer-Dsend .keypos-19 text.hold,
.layer-Dsend .keypos-20 text.hold,
.layer-Dsend .keypos-21 text.hold,
.layer-Dsend .keypos-22 text.hold,
.layer-Qwerty .keypos-19 text.hold,
.layer-Qwerty .keypos-20 text.hold,
.layer-Qwerty .keypos-21 text.hold,
.layer-Qwerty .keypos-22 text.hold {
    font-size: 10px;
    text-anchor: end;
    dominant-baseline: middle;
    transform: translate(24px, -21px);
}

text.hold, text.bl, text.br    { text-anchor: middle; dominant-baseline: auto; }
text.shifted, text.tl, text.tr { text-anchor: middle; dominant-baseline: hanging; }
text.left, text.tl, text.bl    { text-anchor: start; }
text.right, text.tr, text.br   { text-anchor: end; }

text.layer-activator { text-decoration: underline; }
text.combo.hold, text.combo.shifted, text.combo.left, text.combo.right { font-size: 8px; }

text.label, text.footer {
    fill: var(--color-key);
    stroke: var(--color-bg);
    stroke-width: 4;
    paint-order: stroke;
}
text.label  { font-weight: bold; text-anchor: start; }
text.footer { text-anchor: end; dominant-baseline: auto; }

rect.key, rect.combo, rect.combo-separate { fill: var(--color-key); stroke-width: 0; }
rect.held, rect.combo.held                { fill: var(--color-held); }
.layer-Combos rect.key                    { fill: var(--color-ghost); }

path.combo { stroke: var(--color-dendron); stroke-width: 2; stroke-dasharray: 2, 3; opacity: 0.45; fill: none; }

text.tl, use.tl { fill: var(--color-app); }
text.tr, use.tr { fill: var(--color-sym); }
text.bl, use.bl { fill: var(--color-num); }
text.br, use.br { fill: var(--color-nav); }

.keypos-36 text.hold { fill: var(--color-app); }
.keypos-38 text.hold,
.keypos-39 text.hold { fill: var(--color-nav); }
.keypos-40 text.hold { fill: var(--color-sym); }
.keypos-41 text.hold { fill: var(--color-num); }
.keypos-33 text.hold { font-size: 15px; }

.icon-tabler > path                             { fill: inherit; stroke: inherit; stroke-width: 2; }
.icon-tabler > path[stroke="none"][fill="none"] { visibility: hidden; }

@media (prefers-color-scheme: dark) {
    svg.keymap {
        --color-bg:      #a89984;
        --color-key:     #282828;
        --color-text:    #ebdbb2;
        --color-ghost:   #928374;
        --color-dendron: #504945;
        --color-held:    #665c54;

        --color-app:     #458588;
        --color-nav:     #d79921;
        --color-num:     #d65d0e;
        --color-sym:     #689d6a;
    }
}
</style>
<g transform="translate(10, 0)" class="layer-Dsend">
<g transform="translate(0, 10)">
<g transform="translate(28, 49)" class="key keypos-0">
<rect rx="6" ry="6" x="-26" y="-26" width="52" height="52" class="key"/>
<text x="0" y="1" class="key tap">Tab</text>
<text x="0" y="22" class="key hold">Esc</text>
<text x="-22" y="-22" class="key tl">NWin</text>
</g>
<g transform="translate(84, 49)" class="key keypos-1">
<rect rx="6" ry="6" x="-26" y="-26" width="52" height="52" class="key"/>
<text x="0" y="1" class="key tap">X</text>
<text x="-22" y="-22" class="key tl">PWin</text>
<text x="22" y="-22" class="key tr">&amp;</text>
<text x="22" y="22" class="key br">SS</text>
</g>
<g transform="translate(140, 35)" class="key keypos-2">
<rect rx="6" ry="6" x="-26" y="-26" width="52" height="52" class="key"/>
<text x="0" y="1" class="key tap">C</text>
<text x="-22" y="-22" class="key tl"><tspan style="font-size: 78%">Prev Desk</tspan></text>
<text x="22" y="-22" class="key tr">@</text>
<text x="-22" y="22" class="key bl">7</text>
<text x="22" y="22" class="key br">Win SS</text>
</g>
<g transform="translate(196, 28)" class="key keypos-3">
<rect rx="6" ry="6" x="-26" y="-26" width="52" height="52" class="key"/>
<text x="0" y="1" class="key tap">L</text>
<text x="-22" y="-22" class="key tl"><tspan style="font-size: 78%">Desk View</tspan></text>
<text x="22" y="-22" class="key tr">#</text>
<text x="-22" y="22" class="key bl">8</text>
<text x="22" y="22" class="key br">Snip SS</text>
</g>
<g transform="translate(252, 35)" class="key keypos-4">
<rect rx="6" ry="6" x="-26" y="-26" width="52" height="52" class="key"/>
<text x="0" y="1" class="key tap">F</text>
<text x="-22" y="-22" class="key tl"><tspan style="font-size: 78%">Next Desk</tspan></text>
<text x="22" y="-22" class="key tr">$</text>
<text x="-22" y="22" class="key bl">9</text>
</g>
<g transform="translate(308, 42)" class="key keypos-5">
<rect rx="6" ry="6" x="-26" y="-26" width="52" height="52" class="key"/>
<text x="0" y="1" class="key tap">V</text>
<text x="22" y="-22" class="key tr">^</text>
<text x="-22" y="22" class="key bl">*</text>
</g>
<g transform="translate(532, 42)" class="key keypos-6">
<rect rx="6" ry="6" x="-26" y="-26" width="52" height="52" class="key"/>
<text x="0" y="1" class="key tap">&#x27;</text>
<text x="-22" y="-22" class="key tl">Meh+A</text>
<text x="22" y="-22" class="key tr">&quot;</text>
</g>
<g transform="translate(588, 35)" class="key keypos-7">
<rect rx="6" ry="6" x="-26" y="-26" width="52" height="52" class="key"/>
<text x="0" y="1" class="key tap">;</text>
<text x="-22" y="-22" class="key tl">Meh+B</text>
<text x="22" y="-22" class="key tr">(</text>
<text x="22" y="22" class="key br">Address</text>
</g>
<g transform="translate(644, 28)" class="key keypos-8">
<rect rx="6" ry="6" x="-26" y="-26" width="52" height="52" class="key"/>
<text x="0" y="1" class="key tap">U</text>
<text x="-22" y="-22" class="key tl">Meh+C</text>
<text x="22" y="-22" class="key tr">)</text>
<text x="22" y="22" class="key br">PgUp</text>
</g>
<g transform="translate(700, 35)" class="key keypos-9">
<rect rx="6" ry="6" x="-26" y="-26" width="52" height="52" class="key"/>
<text x="0" y="1" class="key tap">P</text>
<text x="-22" y="-22" class="key tl">Meh+D</text>
<text x="22" y="-22" class="key tr">{ [</text>
<text x="22" y="22" class="key br">PgDn</text>
</g>
<g transform="translate(756, 49)" class="key keypos-10">
<rect rx="6" ry="6" x="-26" y="-26" width="52" height="52" class="key"/>
<text x="0" y="1" class="key tap">Q</text>
<text x="-22" y="-22" class="key tl">Meh+E</text>
<text x="22" y="-22" class="key tr">} ]</text>
<text x="22" y="22" class="key br">Ins</text>
</g>
<g transform="translate(812, 49)" class="key keypos-11">
<rect rx="6" ry="6" x="-26" y="-26" width="52" height="52" class="key"/>
<text x="0" y="1" class="key tap">Sys</text>
</g>
<g transform="translate(28, 105)" class="key keypos-12">
<rect rx="6" ry="6" x="-26" y="-26" width="52" height="52" class="key"/>
<text x="0" y="1" class="key tap">&lt;-Line</text>
<text x="0" y="22" class="key hold">&lt;-Doc</text>
<text x="-22" y="-22" class="key tl">AppWin</text>
<text x="22" y="-22" class="key tr">%</text>
</g>
<g transform="translate(84, 105)" class="key keypos-13">
<rect rx="6" ry="6" x="-26" y="-26" width="52" height="52" class="key"/>
<text x="0" y="1" class="key tap">R</text>
<text x="0" y="22" class="key hold">Gui</text>
<text x="-22" y="-22" class="key tl">Shift</text>
<text x="22" y="-22" class="key tr">+</text>
<text x="-22" y="22" class="key bl">+</text>
<text x="22" y="22" class="key br">Redo</text>
</g>
<g transform="translate(140, 91)" class="key keypos-14">
<rect rx="6" ry="6" x="-26" y="-26" width="52" height="52" class="key"/>
<text x="0" y="1" class="key tap">S</text>
<text x="0" y="22" class="key hold">Alt</text>
<text x="-22" y="-22" class="key tl"><tspan style="font-size: 78%">Tile Left</tspan></text>
<text x="22" y="-22" class="key tr">-</text>
<text x="-22" y="22" class="key bl">4</text>
</g>
<g transform="translate(196, 84)" class="key keypos-15">
<rect rx="6" ry="6" x="-26" y="-26" width="52" height="52" class="key"/>
<text x="0" y="1" class="key tap">N</text>
<text x="0" y="22" class="key hold">shft</text>
<text x="-22" y="-22" class="key tl">Fill</text>
<text x="22" y="-22" class="key tr">*</text>
<text x="-22" y="22" class="key bl">5</text>
<text x="22" y="22" class="key br">All</text>
</g>
<g transform="translate(252, 91)" class="key keypos-16">
<rect rx="6" ry="6" x="-26" y="-26" width="52" height="52" class="key"/>
<text x="0" y="1" class="key tap">T</text>
<text x="0" y="22" class="key hold">Ctrl</text>
<text x="-22" y="-22" class="key tl"><tspan style="font-size: 70%">Tile Right</tspan></text>
<text x="22" y="-22" class="key tr">/</text>
<text x="-22" y="22" class="key bl">6</text>
<text x="22" y="22" class="key br">Find</text>
</g>
<g transform="translate(308, 98)" class="key keypos-17">
<rect rx="6" ry="6" x="-26" y="-26" width="52" height="52" class="key"/>
<text x="0" y="1" class="key tap">G</text>
<text x="22" y="-22" class="key tr">=</text>
<text x="-22" y="22" class="key bl">=</text>
</g>
<g transform="translate(532, 98)" class="key keypos-18">
<rect rx="6" ry="6" x="-26" y="-26" width="52" height="52" class="key"/>
<text x="0" y="1" class="key tap">.</text>
<text x="-22" y="-22" class="key tl">Meh+F</text>
<text x="22" y="-22" class="key tr">!</text>
</g>
<g transform="translate(588, 91)" class="key keypos-19">
<rect rx="6" ry="6" x="-26" y="-26" width="52" height="52" class="key"/>
<text x="0" y="1" class="key tap">A</text>
<text x="0" y="22" class="key hold">Ctrl</text>
<text x="-22" y="-22" class="key tl">Meh+G</text>
<text x="22" y="22" class="key br">←</text>
</g>
<g transform="translate(644, 84)" class="key keypos-20">
<rect rx="6" ry="6" x="-26" y="-26" width="52" height="52" class="key"/>
<text x="0" y="1" class="key tap">E</text>
<text x="0" y="22" class="key hold">shft</text>
<text x="-22" y="-22" class="key tl">Meh+H</text>
<text x="22" y="22" class="key br">↑</text>
</g>
<g transform="translate(700, 91)" class="key keypos-21">
<rect rx="6" ry="6" x="-26" y="-26" width="52" height="52" class="key"/>
<text x="0" y="1" class="key tap">H</text>
<text x="0" y="22" class="key hold">Alt</text>
<text x="-22" y="-22" class="key tl">Meh+I</text>
<text x="22" y="22" class="key br">↓</text>
</g>
<g transform="translate(756, 105)" class="key keypos-22">
<rect rx="6" ry="6" x="-26" y="-26" width="52" height="52" class="key"/>
<text x="0" y="1" class="key tap">I</text>
<text x="0" y="22" class="key hold">Gui</text>
<text x="-22" y="-22" class="key tl">Meh+J</text>
<text x="22" y="22" class="key br">→</text>
</g>
<g transform="translate(812, 105)" class="key keypos-23">
<rect rx="6" ry="6" x="-26" y="-26" width="52" height="52" class="key"/>
<text x="0" y="1" class="key tap">Line-&gt;</text>
<text x="0" y="22" class="key hold">Doc-&gt;</text>
</g>
<g transform="translate(28, 161)" class="key keypos-24">
<rect rx="6" ry="6" x="-26" y="-26" width="52" height="52" class="key"/>
<text x="0" y="1" class="key tap">Ctrl</text>
</g>
<g transform="translate(84, 161)" class="key keypos-25">
<rect rx="6" ry="6" x="-26" y="-26" width="52" height="52" class="key"/>
<text x="0" y="1" class="key tap">Z</text>
<text x="22" y="-22" class="key tr">~</text>
<text x="-22" y="22" class="key bl">-</text>
<text x="22" y="22" class="key br">Undo</text>
</g>
<g transform="translate(140, 147)" class="key keypos-26">
<rect rx="6" ry="6" x="-26" y="-26" width="52" height="52" class="key"/>
<text x="0" y="1" class="key tap">W</text>
<text x="-22" y="-22" class="key tl"><tspan style="font-size: 88%">Next Mon</tspan></text>
<text x="22" y="-22" class="key tr">|</text>
<text x="-22" y="22" class="key bl">1</text>
<text x="22" y="22" class="key br">Cut</text>
</g>
<g transform="translate(196, 140)" class="key keypos-27">
<rect rx="6" ry="6" x="-26" y="-26" width="52" height="52" class="key"/>
<text x="0" y="1" class="key tap">M</text>
<text x="-22" y="-22" class="key tl">Min</text>
<text x="22" y="-22" class="key tr">_</text>
<text x="-22" y="22" class="key bl">2</text>
<text x="22" y="22" class="key br">Copy</text>
</g>
<g transform="translate(252, 147)" class="key keypos-28">
<rect rx="6" ry="6" x="-26" y="-26" width="52" height="52" class="key"/>
<text x="0" y="1" class="key tap">D</text>
<text x="-22" y="-22" class="key tl">Restore</text>
<text x="22" y="-22" class="key tr">:</text>
<text x="-22" y="22" class="key bl">3</text>
<text x="22" y="22" class="key br">Paste</text>
</g>
<g transform="translate(308, 154)" class="key keypos-29">
<rect rx="6" ry="6" x="-26" y="-26" width="52" height="52" class="key"/>
<text x="0" y="1" class="key tap">B</text>
<text x="22" y="-22" class="key tr">\</text>
<text x="-22" y="22" class="key bl">/</text>
</g>
<g transform="translate(532, 154)" class="key keypos-30">
<rect rx="6" ry="6" x="-26" y="-26" width="52" height="52" class="key"/>
<text x="0" y="1" class="key tap">,</text>
<text x="-22" y="-22" class="key tl">Meh+K</text>
<text x="22" y="-22" class="key tr">?</text>
</g>
<g transform="translate(588, 147)" class="key keypos-31">
<rect rx="6" ry="6" x="-26" y="-26" width="52" height="52" class="key"/>
<text x="0" y="1" class="key tap">O</text>
<text x="-22" y="-22" class="key tl">Meh+L</text>
<text x="22" y="-22" class="key tr">{</text>
<text x="22" y="22" class="key br">New Tab</text>
</g>
<g transform="translate(644, 140)" class="key keypos-32">
<rect rx="6" ry="6" x="-26" y="-26" width="52" height="52" class="key"/>
<text x="0" y="1" class="key tap">Y</text>
<text x="-22" y="-22" class="key tl">Meh+M</text>
<text x="22" y="-22" class="key tr">}</text>
<text x="22" y="22" class="key br">New Win</text>
</g>
<g transform="translate(700, 147)" class="key keypos-33">
<rect rx="6" ry="6" x="-26" y="-26" width="52" height="52" class="key"/>
<text x="0" y="1" class="key tap">K</text>
<text x="-22" y="-22" class="key tl">Meh+N</text>
<text x="22" y="-22" class="key tr">&lt;</text>
<text x="22" y="22" class="key br"><tspan style="font-size: 64%">Private Win</tspan></text>
</g>
<g transform="translate(756, 161)" class="key keypos-34">
<rect rx="6" ry="6" x="-26" y="-26" width="52" height="52" class="key"/>
<text x="0" y="1" class="key tap">J</text>
<text x="-22" y="-22" class="key tl">Meh+O</text>
<text x="22" y="-22" class="key tr">&gt;</text>
</g>
<g transform="translate(812, 161)" class="key keypos-35">
<rect rx="6" ry="6" x="-26" y="-26" width="52" height="52" class="key"/>
<text x="0" y="1" class="key tap">RWIN</text>
</g>
<g transform="translate(224, 205)" class="key keypos-36">
<rect rx="6" ry="6" x="-26" y="-26" width="52" height="52" class="key"/>
<text x="0" y="1" class="key tap"><tspan style="font-size: 88%">Launcher</tspan></text>
<text x="0" y="22" class="key hold">App</text>
<text x="-22" y="22" class="key bl">.</text>
</g>
<g transform="translate(286, 213) rotate(15.0)" class="key keypos-37">
<rect rx="6" ry="6" x="-26" y="-26" width="52" height="52" class="key"/>
<text x="0" y="1" class="key tap">Magic</text>
<text x="0" y="22" class="key hold">Shift</text>
<text x="-22" y="22" class="key bl">0</text>
</g>
<g transform="translate(351, 224) rotate(30.0)" class="key keypos-38">
<rect rx="6" ry="6" x="-26" y="-40" width="52" height="80" class="key"/>
<text x="0" y="1" class="key tap">Bspc</text>
<text x="0" y="36" class="key hold">Nav</text>
<text x="0" y="-36" class="key shifted"><tspan style="font-size: 78%">Word Bspc</tspan></text>
</g>
<g transform="translate(489, 224) rotate(-30.0)" class="key keypos-39">
<rect rx="6" ry="6" x="-26" y="-40" width="52" height="80" class="key"/>
<text x="0" y="1" class="key tap">Enter</text>
<text x="0" y="36" class="key hold">Nav</text>
</g>
<g transform="translate(554, 213) rotate(-15.0)" class="key keypos-40">
<rect rx="6" ry="6" x="-26" y="-26" width="52" height="52" class="key"/>
<text x="0" y="1" class="key tap">Spc</text>
<text x="0" y="22" class="key hold">Sym</text>
<text x="0" y="-22" class="key shifted"><tspan style="font-size: 88%">Sentence</tspan></text>
</g>
<g transform="translate(616, 205)" class="key keypos-41">
<rect rx="6" ry="6" x="-26" y="-26" width="52" height="52" class="key"/>
<text x="0" y="1" class="key tap">Smart</text>
<text x="0" y="22" class="key hold">Num</text>
</g>
</g>
</g>
<g transform="translate(10, 285)" class="layer-Combos">
<g transform="translate(0, 44)">
<g transform="translate(28, 49)" class="key keypos-0">
<rect rx="6" ry="6" x="-26" y="-26" width="52" height="52" class="key"/>
</g>
<g transform="translate(84, 49)" class="key keypos-1">
<rect rx="6" ry="6" x="-26" y="-26" width="52" height="52" class="key"/>
</g>
<g transform="translate(140, 35)" class="key keypos-2">
<rect rx="6" ry="6" x="-26" y="-26" width="52" height="52" class="key"/>
</g>
<g transform="translate(196, 28)" class="key keypos-3">
<rect rx="6" ry="6" x="-26" y="-26" width="52" height="52" class="key"/>
</g>
<g transform="translate(252, 35)" class="key keypos-4">
<rect rx="6" ry="6" x="-26" y="-26" width="52" height="52" class="key"/>
</g>
<g transform="translate(308, 42)" class="key keypos-5">
<rect rx="6" ry="6" x="-26" y="-26" width="52" height="52" class="key"/>
</g>
<g transform="translate(532, 42)" class="key keypos-6">
<rect rx="6" ry="6" x="-26" y="-26" width="52" height="52" class="key"/>
</g>
<g transform="translate(588, 35)" class="key keypos-7">
<rect rx="6" ry="6" x="-26" y="-26" width="52" height="52" class="key"/>
</g>
<g transform="translate(644, 28)" class="key keypos-8">
<rect rx="6" ry="6" x="-26" y="-26" width="52" height="52" class="key"/>
</g>
<g transform="translate(700, 35)" class="key keypos-9">
<rect rx="6" ry="6" x="-26" y="-26" width="52" height="52" class="key"/>
</g>
<g transform="translate(756, 49)" class="key keypos-10">
<rect rx="6" ry="6" x="-26" y="-26" width="52" height="52" class="key"/>
</g>
<g transform="translate(812, 49)" class="key keypos-11">
<rect rx="6" ry="6" x="-26" y="-26" width="52" height="52" class="key"/>
</g>
<g transform="translate(28, 105)" class="key keypos-12">
<rect rx="6" ry="6" x="-26" y="-26" width="52" height="52" class="key"/>
</g>
<g transform="translate(84, 105)" class="key keypos-13">
<rect rx="6" ry="6" x="-26" y="-26" width="52" height="52" class="key"/>
</g>
<g transform="translate(140, 91)" class="key keypos-14">
<rect rx="6" ry="6" x="-26" y="-26" width="52" height="52" class="key"/>
</g>
<g transform="translate(196, 84)" class="key keypos-15">
<rect rx="6" ry="6" x="-26" y="-26" width="52" height="52" class="key"/>
</g>
<g transform="translate(252, 91)" class="key keypos-16">
<rect rx="6" ry="6" x="-26" y="-26" width="52" height="52" class="key"/>
</g>
<g transform="translate(308, 98)" class="key keypos-17">
<rect rx="6" ry="6" x="-26" y="-26" width="52" height="52" class="key"/>
</g>
<g transform="translate(532, 98)" class="key keypos-18">
<rect rx="6" ry="6" x="-26" y="-26" width="52" height="52" class="key"/>
</g>
<g transform="translate(588, 91)" class="key keypos-19">
<rect rx="6" ry="6" x="-26" y="-26" width="52" height="52" class="key"/>
</g>
<g transform="translate(644, 84)" class="key keypos-20">
<rect rx="6" ry="6" x="-26" y="-26" width="52" height="52" class="key"/>
</g>
<g transform="translate(700, 91)" class="key keypos-21">
<rect rx="6" ry="6" x="-26" y="-26" width="52" height="52" class="key"/>
</g>
<g transform="translate(756, 105)" class="key keypos-22">
<rect rx="6" ry="6" x="-26" y="-26" width="52" height="52" class="key"/>
</g>
<g transform="translate(812, 105)" class="key keypos-23">
<rect rx="6" ry="6" x="-26" y="-26" width="52" height="52" class="key"/>
</g>
<g transform="translate(28, 161)" class="key keypos-24">
<rect rx="6" ry="6" x="-26" y="-26" width="52" height="52" class="key"/>
</g>
<g transform="translate(84, 161)" class="key keypos-25">
<rect rx="6" ry="6" x="-26" y="-26" width="52" height="52" class="key"/>
</g>
<g transform="translate(140, 147)" class="key keypos-26">
<rect rx="6" ry="6" x="-26" y="-26" width="52" height="52" class="key"/>
</g>
<g transform="translate(196, 140)" class="key keypos-27">
<rect rx="6" ry="6" x="-26" y="-26" width="52" height="52" class="key"/>
</g>
<g transform="translate(252, 147)" class="key keypos-28">
<rect rx="6" ry="6" x="-26" y="-26" width="52" height="52" class="key"/>
</g>
<g transform="translate(308, 154)" class="key keypos-29">
<rect rx="6" ry="6" x="-26" y="-26" width="52" height="52" class="key"/>
</g>
<g transform="translate(532, 154)" class="key keypos-30">
<rect rx="6" ry="6" x="-26" y="-26" width="52" height="52" class="key"/>
</g>
<g transform="translate(588, 147)" class="key keypos-31">
<rect rx="6" ry="6" x="-26" y="-26" width="52" height="52" class="key"/>
</g>
<g transform="translate(644, 140)" class="key keypos-32">
<rect rx="6" ry="6" x="-26" y="-26" width="52" height="52" class="key"/>
</g>
<g transform="translate(700, 147)" class="key keypos-33">
<rect rx="6" ry="6" x="-26" y="-26" width="52" height="52" class="key"/>
</g>
<g transform="translate(756, 161)" class="key keypos-34">
<rect rx="6" ry="6" x="-26" y="-26" width="52" height="52" class="key"/>
</g>
<g transform="translate(812, 161)" class="key keypos-35">
<rect rx="6" ry="6" x="-26" y="-26" width="52" height="52" class="key"/>
</g>
<g transform="translate(224, 205)" class="key keypos-36">
<rect rx="6" ry="6" x="-26" y="-26" width="52" height="52" class="key"/>
</g>
<g transform="translate(286, 213) rotate(15.0)" class="key keypos-37">
<rect rx="6" ry="6" x="-26" y="-26" width="52" height="52" class="key"/>
</g>
<g transform="translate(351, 224) rotate(30.0)" class="key keypos-38">
<rect rx="6" ry="6" x="-26" y="-40" width="52" height="80" class="key"/>
</g>
<g transform="translate(489, 224) rotate(-30.0)" class="key keypos-39">
<rect rx="6" ry="6" x="-26" y="-40" width="52" height="80" class="key"/>
</g>
<g transform="translate(554, 213) rotate(-15.0)" class="key keypos-40">
<rect rx="6" ry="6" x="-26" y="-26" width="52" height="52" class="key"/>
</g>
<g transform="translate(616, 205)" class="key keypos-41">
<rect rx="6" ry="6" x="-26" y="-26" width="52" height="52" class="key"/>
</g>
<g class="combo combopos-0">
<rect rx="6" ry="6" x="154" y="18" width="28" height="26" class="combo"/>
<text x="168" y="32" class="combo tap">Esc</text>
</g>
<g class="combo combopos-1">
<rect rx="6" ry="6" x="210" y="18" width="28" height="26" class="combo"/>
<text x="224" y="32" class="combo tap">
<tspan x="224" dy="-0.6em">Smart</tspan><tspan x="224" dy="1.2em">Mouse</tspan>
</text>
</g>
<g class="combo combopos-2">
<rect rx="6" ry="6" x="154" y="74" width="28" height="26" class="combo"/>
<text x="168" y="88" class="combo tap">Tab</text>
</g>
<g class="combo combopos-3">
<rect rx="6" ry="6" x="210" y="74" width="28" height="26" class="combo"/>
<text x="224" y="88" class="combo tap">Leader</text>
</g>
<g class="combo combopos-4">
<path d="M196,-21 h-50 a6.0,6.0 0 0 0 -6.0,6.0 v87" class="combo"/>
<path d="M196,-21 l0,86" class="combo"/>
<path d="M196,-21 h50 a6.0,6.0 0 0 1 6.0,6.0 v87" class="combo"/>
<rect rx="6" ry="6" x="182" y="-34" width="28" height="26" class="combo"/>
<text x="196" y="-21" class="combo tap">
<tspan x="196" dy="-0.6em">Shift+</tspan><tspan x="196" dy="1.2em">Leader</tspan>
</text>
</g>
<g class="combo combopos-5">
<path d="M196,184 h-50 a6.0,6.0 0 0 1 -6.0,-6.0 v-13" class="combo"/>
<path d="M196,184 h50 a6.0,6.0 0 0 0 6.0,-6.0 v-13" class="combo"/>
<rect rx="6" ry="6" x="182" y="171" width="28" height="26" class="combo"/>
<text x="196" y="184" class="combo tap">Cut</text>
</g>
<g class="combo combopos-6">
<rect rx="6" ry="6" x="154" y="130" width="28" height="26" class="combo"/>
<text x="168" y="144" class="combo tap">Copy</text>
</g>
<g class="combo combopos-7">
<rect rx="6" ry="6" x="210" y="130" width="28" height="26" class="combo"/>
<text x="224" y="144" class="combo tap">Paste</text>
</g>
<g class="combo combopos-8">
<rect rx="6" ry="6" x="602" y="18" width="28" height="26" class="combo"/>
<text x="616" y="32" class="combo tap">Bspc</text>
</g>
<g class="combo combopos-9">
<rect rx="6" ry="6" x="658" y="18" width="28" height="26" class="combo"/>
<text x="672" y="32" class="combo tap">Del</text>
</g>
<g class="combo combopos-10">
<rect rx="6" ry="6" x="602" y="74" width="28" height="26" class="combo"/>
<text x="616" y="88" class="combo tap">
<tspan x="616" dy="-0.6em">&lt;</tspan><tspan x="616" dy="1.2em">(</tspan>
</text>
</g>
<g class="combo combopos-11">
<rect rx="6" ry="6" x="658" y="74" width="28" height="26" class="combo"/>
<text x="672" y="88" class="combo tap">
<tspan x="672" dy="-0.6em">&gt;</tspan><tspan x="672" dy="1.2em">)</tspan>
</text>
</g>
<g class="combo combopos-14">
<rect rx="6" ry="6" x="602" y="130" width="28" height="26" class="combo"/>
<text x="616" y="144" class="combo tap">
<tspan x="616" dy="-0.6em">{</tspan><tspan x="616" dy="1.2em">[</tspan>
</text>
</g>
<g class="combo combopos-15">
<rect rx="6" ry="6" x="658" y="130" width="28" height="26" class="combo"/>
<text x="672" y="144" class="combo tap">
<tspan x="672" dy="-0.6em">}</tspan><tspan x="672" dy="1.2em">]</tspan>
</text>
</g>
<g class="combo combopos-18">
<rect rx="6" ry="6" x="126" y="50" width="28" height="26" class="combo"/>
<text x="140" y="63" class="combo tap">@</text>
</g>
<g class="combo combopos-19">
<rect rx="6" ry="6" x="182" y="43" width="28" height="26" class="combo"/>
<text x="196" y="56" class="combo tap">#</text>
</g>
<g class="combo combopos-20">
<rect rx="6" ry="6" x="238" y="50" width="28" height="26" class="combo"/>
<text x="252" y="63" class="combo tap">$</text>
</g>
<g class="combo combopos-21">
<rect rx="6" ry="6" x="294" y="57" width="28" height="26" class="combo"/>
<text x="308" y="70" class="combo tap">%</text>
</g>
<g class="combo combopos-22">
<rect rx="6" ry="6" x="126" y="106" width="28" height="26" class="combo"/>
<text x="140" y="119" class="combo tap">`</text>
</g>
<g class="combo combopos-23">
<rect rx="6" ry="6" x="182" y="99" width="28" height="26" class="combo"/>
<text x="196" y="112" class="combo tap">\</text>
</g>
<g class="combo combopos-24">
<rect rx="6" ry="6" x="238" y="106" width="28" height="26" class="combo"/>
<text x="252" y="119" class="combo tap">=</text>
</g>
<g class="combo combopos-25">
<rect rx="6" ry="6" x="294" y="113" width="28" height="26" class="combo"/>
<text x="308" y="126" class="combo tap">~</text>
</g>
<g class="combo combopos-26">
<rect rx="6" ry="6" x="518" y="57" width="28" height="26" class="combo"/>
<text x="532" y="70" class="combo tap">^</text>
</g>
<g class="combo combopos-27">
<rect rx="6" ry="6" x="574" y="50" width="28" height="26" class="combo"/>
<text x="588" y="63" class="combo tap">+</text>
</g>
<g class="combo combopos-28">
<rect rx="6" ry="6" x="630" y="43" width="28" height="26" class="combo"/>
<text x="644" y="56" class="combo tap">*</text>
</g>
<g class="combo combopos-29">
<rect rx="6" ry="6" x="686" y="50" width="28" height="26" class="combo"/>
<text x="700" y="63" class="combo tap">&amp;</text>
</g>
<g class="combo combopos-30">
<rect rx="6" ry="6" x="518" y="113" width="28" height="26" class="combo"/>
<text x="532" y="126" class="combo tap">_</text>
</g>
<g class="combo combopos-31">
<rect rx="6" ry="6" x="574" y="106" width="28" height="26" class="combo"/>
<text x="588" y="119" class="combo tap">-</text>
</g>
<g class="combo combopos-32">
<rect rx="6" ry="6" x="630" y="99" width="28" height="26" class="combo"/>
<text x="644" y="112" class="combo tap">/</text>
</g>
<g class="combo combopos-33">
<rect rx="6" ry="6" x="686" y="106" width="28" height="26" class="combo"/>
<text x="700" y="119" class="combo tap">|</text>
</g>
</g>
</g>
<text x="850.0" y="608.0" class="footer">andrewxhc/zmk-config</text></svg>
