<svg width="860" height="648" viewBox="0 0 860 648" class="keymap" xmlns="http://www.w3.org/2000/svg" xmlns:xlink="http://www.w3.org/1999/xlink">
<style>svg path { fill: inherit; }

svg.keymap {
    --color-bg:      #7c6f64;
    --color-key:     #fbf1c7;
    --color-text:    #3c3836;
    --color-ghost:   #928374;
    --color-dendron: #d5c4a1;
    --color-held:    #bdae93;

    --color-fn:      #458588;
    --color-nav:     #d79921;
    --color-num:     #d65d0e;
    --color-sys:     #689d6a;

    fill: var(--color-text);
    background-color: var(--color-bg);
    font-family: Calibri, system-ui, sans-serif;
    font-size: 16px;
    font-kerning: normal;
    text-rendering: optimizeLegibility;
}

text {
    text-anchor: middle;
    dominant-baseline: middle;
    letter-spacing: 0.02em;
}

text.tap     { font-weight: 500; }
text.hold    { font-weight: 400; font-size: 13px; }
text.shifted { font-weight: 400; font-size: 11px; }
text.combo, text.left, text.right, text.tl, text.tr, text.bl, text.br { font-size: 10px; }

text.hold, text.bl, text.br    { text-anchor: middle; dominant-baseline: auto; }
text.shifted, text.tl, text.tr { text-anchor: middle; dominant-baseline: hanging; }
text.left, text.tl, text.bl    { text-anchor: start; }
text.right, text.tr, text.br   { text-anchor: end; }

text.layer-activator { text-decoration: underline; }
text.combo.hold, text.combo.shifted, text.combo.left, text.combo.right { font-size: 8px; }

text.label, text.footer {
    fill: var(--color-key);
    stroke: var(--color-bg);
    stroke-width: 4;
    paint-order: stroke;
}
text.label  { font-weight: bold; text-anchor: start; }
text.footer { text-anchor: end; dominant-baseline: auto; }

rect.key, rect.combo, rect.combo-separate { fill: var(--color-key); stroke-width: 0; }
rect.held, rect.combo.held                { fill: var(--color-held); }
.layer-Combos rect.key                    { fill: var(--color-ghost); }

path.combo { stroke: var(--color-dendron); stroke-width: 2; stroke-dasharray: 2, 3; opacity: 0.45; fill: none; }

text.tl, use.tl { fill: var(--color-fn); }
text.tr, use.tr { fill: var(--color-nav); }
text.bl, use.bl { fill: var(--color-num); }
text.br, use.br { fill: var(--color-sys); }

.keypos-30 text.hold { fill: var(--color-nav); }
.keypos-31 text.hold { fill: var(--color-fn); }
.keypos-32 text.hold { fill: var(--color-num); font-size: 15px; }
.keypos-32 text.tap  { fill: var(--color-num); }
.keypos-33 text.hold { font-size: 15px; }

.icon-tabler > path                             { fill: inherit; stroke: inherit; stroke-width: 2; }
.icon-tabler > path[stroke="none"][fill="none"] { visibility: hidden; }

@media (prefers-color-scheme: dark) {
    svg.keymap {
        --color-bg:      #a89984;
        --color-key:     #282828;
        --color-text:    #ebdbb2;
        --color-ghost:   #928374;
        --color-dendron: #504945;
        --color-held:    #665c54;

        --color-fn:      #458588;
        --color-nav:     #fabd2f;
        --color-num:     #d65d0e;
        --color-sys:     #689d6a;
    }
}
</style>
<g transform="translate(10, 0)" class="layer-Dsend">
<g transform="translate(0, 10)">
<g transform="translate(28, 49)" class="key keypos-0">
<rect rx="6" ry="6" x="-26" y="-26" width="52" height="52" class="key"/>
<text x="0" y="1" class="key tap">Tab</text>
<text x="0" y="22" class="key hold">Esc</text>
<text x="-22" y="-22" class="key tl">NWin</text>
</g>
<g transform="translate(84, 49)" class="key keypos-1">
<rect rx="6" ry="6" x="-26" y="-26" width="52" height="52" class="key"/>
<text x="0" y="1" class="key tap">X</text>
<text x="-22" y="-22" class="key tl">PWin</text>
<text x="22" y="-22" class="key tr"><tspan style="font-size: 64%">&amp;ok_ss_full</tspan></text>
<text x="22" y="22" class="key br">&amp;</text>
</g>
<g transform="translate(140, 35)" class="key keypos-2">
<rect rx="6" ry="6" x="-26" y="-26" width="52" height="52" class="key"/>
<text x="0" y="1" class="key tap">C</text>
<text x="-22" y="-22" class="key tl"><tspan style="font-size: 64%">&amp;ok_dsk_pr…</tspan></text>
<text x="22" y="-22" class="key tr"><tspan style="font-size: 70%">&amp;ok_ss_win</tspan></text>
<text x="-22" y="22" class="key bl">7</text>
<text x="22" y="22" class="key br">@</text>
</g>
<g transform="translate(196, 28)" class="key keypos-3">
<rect rx="6" ry="6" x="-26" y="-26" width="52" height="52" class="key"/>
<text x="0" y="1" class="key tap">L</text>
<text x="-22" y="-22" class="key tl"><tspan style="font-size: 64%">&amp;ok_dsk_mgr</tspan></text>
<text x="22" y="-22" class="key tr"><tspan style="font-size: 64%">&amp;ok_ss_reg…</tspan></text>
<text x="-22" y="22" class="key bl">8</text>
<text x="22" y="22" class="key br">#</text>
</g>
<g transform="translate(252, 35)" class="key keypos-4">
<rect rx="6" ry="6" x="-26" y="-26" width="52" height="52" class="key"/>
<text x="0" y="1" class="key tap">F</text>
<text x="-22" y="-22" class="key tl"><tspan style="font-size: 64%">&amp;ok_dsk_ne…</tspan></text>
<text x="-22" y="22" class="key bl">9</text>
<text x="22" y="22" class="key br">$</text>
</g>
<g transform="translate(308, 42)" class="key keypos-5">
<rect rx="6" ry="6" x="-26" y="-26" width="52" height="52" class="key"/>
<text x="0" y="1" class="key tap">V</text>
<text x="-22" y="22" class="key bl">*</text>
<text x="22" y="22" class="key br">^</text>
</g>
<g transform="translate(532, 42)" class="key keypos-6">
<rect rx="6" ry="6" x="-26" y="-26" width="52" height="52" class="key"/>
<text x="0" y="1" class="key tap">&#x27;</text>
<text x="-22" y="-22" class="key tl">Meh+A</text>
<text x="22" y="22" class="key br">&quot;</text>
</g>
<g transform="translate(588, 35)" class="key keypos-7">
<rect rx="6" ry="6" x="-26" y="-26" width="52" height="52" class="key"/>
<text x="0" y="1" class="key tap">;</text>
<text x="-22" y="-22" class="key tl">Meh+B</text>
<text x="22" y="-22" class="key tr"><tspan style="font-size: 64%">&amp;ok_addr_b…</tspan></text>
<text x="22" y="22" class="key br">(</text>
</g>
<g transform="translate(644, 28)" class="key keypos-8">
<rect rx="6" ry="6" x="-26" y="-26" width="52" height="52" class="key"/>
<text x="0" y="1" class="key tap">U</text>
<text x="-22" y="-22" class="key tl">Meh+C</text>
<text x="22" y="-22" class="key tr">PgUp</text>
<text x="22" y="22" class="key br">)</text>
</g>
<g transform="translate(700, 35)" class="key keypos-9">
<rect rx="6" ry="6" x="-26" y="-26" width="52" height="52" class="key"/>
<text x="0" y="1" class="key tap">P</text>
<text x="-22" y="-22" class="key tl">Meh+D</text>
<text x="22" y="-22" class="key tr">PgDn</text>
<text x="22" y="22" class="key br">{ [</text>
</g>
<g transform="translate(756, 49)" class="key keypos-10">
<rect rx="6" ry="6" x="-26" y="-26" width="52" height="52" class="key"/>
<text x="0" y="1" class="key tap">Q</text>
<text x="-22" y="-22" class="key tl">Meh+E</text>
<text x="22" y="-22" class="key tr">Ins</text>
<text x="22" y="22" class="key br">} ]</text>
</g>
<g transform="translate(812, 49)" class="key keypos-11">
<rect rx="6" ry="6" x="-26" y="-26" width="52" height="52" class="key"/>
<text x="0" y="1" class="key tap">Sys</text>
</g>
<g transform="translate(28, 105)" class="key keypos-12">
<rect rx="6" ry="6" x="-26" y="-26" width="52" height="52" class="key"/>
<text x="0" y="1" class="key tap"><tspan style="font-size: 64%">&amp;ok_line_s…</tspan></text>
<text x="0" y="22" class="key hold"><tspan style="font-size: 64%">&amp;ok_doc_st…</tspan></text>
<text x="-22" y="-22" class="key tl"><tspan style="font-size: 64%">&amp;swapper_a…</tspan></text>
<text x="22" y="22" class="key br">%</text>
</g>
<g transform="translate(84, 105)" class="key keypos-13">
<rect rx="6" ry="6" x="-26" y="-26" width="52" height="52" class="key"/>
<text x="0" y="1" class="key tap">R</text>
<text x="0" y="22" class="key hold">Gui</text>
<text x="-22" y="-22" class="key tl">Shift</text>
<text x="22" y="-22" class="key tr"><tspan style="font-size: 88%">&amp;ok_redo</tspan></text>
<text x="-22" y="22" class="key bl">+</text>
<text x="22" y="22" class="key br">+</text>
</g>
<g transform="translate(140, 91)" class="key keypos-14">
<rect rx="6" ry="6" x="-26" y="-26" width="52" height="52" class="key"/>
<text x="0" y="1" class="key tap">S</text>
<text x="0" y="22" class="key hold">Alt</text>
<text x="-22" y="-22" class="key tl"><tspan style="font-size: 64%">&amp;ok_tile_l…</tspan></text>
<text x="-22" y="22" class="key bl">4</text>
<text x="22" y="22" class="key br">-</text>
</g>
<g transform="translate(196, 84)" class="key keypos-15">
<rect rx="6" ry="6" x="-26" y="-26" width="52" height="52" class="key"/>
<text x="0" y="1" class="key tap">N</text>
<text x="0" y="22" class="key hold">Shift</text>
<text x="-22" y="-22" class="key tl"><tspan style="font-size: 64%">&amp;ok_tile_f…</tspan></text>
<text x="22" y="-22" class="key tr"><tspan style="font-size: 64%">&amp;ok_sel_all</tspan></text>
<text x="-22" y="22" class="key bl">5</text>
<text x="22" y="22" class="key br">*</text>
</g>
<g transform="translate(252, 91)" class="key keypos-16">
<rect rx="6" ry="6" x="-26" y="-26" width="52" height="52" class="key"/>
<text x="0" y="1" class="key tap">T</text>
<text x="0" y="22" class="key hold">Ctrl</text>
<text x="-22" y="-22" class="key tl"><tspan style="font-size: 64%">&amp;ok_tile_r…</tspan></text>
<text x="22" y="-22" class="key tr"><tspan style="font-size: 88%">&amp;ok_find</tspan></text>
<text x="-22" y="22" class="key bl">6</text>
<text x="22" y="22" class="key br">/</text>
</g>
<g transform="translate(308, 98)" class="key keypos-17">
<rect rx="6" ry="6" x="-26" y="-26" width="52" height="52" class="key"/>
<text x="0" y="1" class="key tap">G</text>
<text x="-22" y="22" class="key bl">=</text>
<text x="22" y="22" class="key br">=</text>
</g>
<g transform="translate(532, 98)" class="key keypos-18">
<rect rx="6" ry="6" x="-26" y="-26" width="52" height="52" class="key"/>
<text x="0" y="1" class="key tap">.</text>
<text x="0" y="-22" class="key shifted">!</text>
<text x="-22" y="-22" class="key tl">Meh+F</text>
<text x="22" y="22" class="key br">!</text>
</g>
<g transform="translate(588, 91)" class="key keypos-19">
<rect rx="6" ry="6" x="-26" y="-26" width="52" height="52" class="key"/>
<text x="0" y="1" class="key tap">A</text>
<text x="0" y="22" class="key hold">Ctrl</text>
<text x="-22" y="-22" class="key tl">Meh+G</text>
<text x="22" y="-22" class="key tr">←</text>
</g>
<g transform="translate(644, 84)" class="key keypos-20">
<rect rx="6" ry="6" x="-26" y="-26" width="52" height="52" class="key"/>
<text x="0" y="1" class="key tap">E</text>
<text x="0" y="22" class="key hold">Shift</text>
<text x="-22" y="-22" class="key tl">Meh+H</text>
<text x="22" y="-22" class="key tr">↑</text>
</g>
<g transform="translate(700, 91)" class="key keypos-21">
<rect rx="6" ry="6" x="-26" y="-26" width="52" height="52" class="key"/>
<text x="0" y="1" class="key tap">H</text>
<text x="0" y="22" class="key hold">Alt</text>
<text x="-22" y="-22" class="key tl">Meh+I</text>
<text x="22" y="-22" class="key tr">↓</text>
</g>
<g transform="translate(756, 105)" class="key keypos-22">
<rect rx="6" ry="6" x="-26" y="-26" width="52" height="52" class="key"/>
<text x="0" y="1" class="key tap">I</text>
<text x="0" y="22" class="key hold">Gui</text>
<text x="-22" y="-22" class="key tl">Meh+J</text>
<text x="22" y="-22" class="key tr">→</text>
</g>
<g transform="translate(812, 105)" class="key keypos-23">
<rect rx="6" ry="6" x="-26" y="-26" width="52" height="52" class="key"/>
<text x="0" y="1" class="key tap"><tspan style="font-size: 64%">&amp;ok_line_e…</tspan></text>
<text x="0" y="22" class="key hold"><tspan style="font-size: 64%">&amp;ok_doc_end</tspan></text>
</g>
<g transform="translate(28, 161)" class="key keypos-24">
<rect rx="6" ry="6" x="-26" y="-26" width="52" height="52" class="key"/>
<text x="0" y="1" class="key tap">Ctrl</text>
</g>
<g transform="translate(84, 161)" class="key keypos-25">
<rect rx="6" ry="6" x="-26" y="-26" width="52" height="52" class="key"/>
<text x="0" y="1" class="key tap">Z</text>
<text x="22" y="-22" class="key tr"><tspan style="font-size: 88%">&amp;ok_undo</tspan></text>
<text x="-22" y="22" class="key bl">-</text>
<text x="22" y="22" class="key br">~</text>
</g>
<g transform="translate(140, 147)" class="key keypos-26">
<rect rx="6" ry="6" x="-26" y="-26" width="52" height="52" class="key"/>
<text x="0" y="1" class="key tap">W</text>
<text x="-22" y="-22" class="key tl"><tspan style="font-size: 64%">&amp;ok_monito…</tspan></text>
<text x="22" y="-22" class="key tr">&amp;ok_cut</text>
<text x="-22" y="22" class="key bl">1</text>
<text x="22" y="22" class="key br">|</text>
</g>
<g transform="translate(196, 140)" class="key keypos-27">
<rect rx="6" ry="6" x="-26" y="-26" width="52" height="52" class="key"/>
<text x="0" y="1" class="key tap">M</text>
<text x="-22" y="-22" class="key tl"><tspan style="font-size: 64%">&amp;ok_window…</tspan></text>
<text x="22" y="-22" class="key tr"><tspan style="font-size: 88%">&amp;ok_copy</tspan></text>
<text x="-22" y="22" class="key bl">2</text>
<text x="22" y="22" class="key br">_</text>
</g>
<g transform="translate(252, 147)" class="key keypos-28">
<rect rx="6" ry="6" x="-26" y="-26" width="52" height="52" class="key"/>
<text x="0" y="1" class="key tap">D</text>
<text x="-22" y="-22" class="key tl"><tspan style="font-size: 64%">&amp;ok_tile_r…</tspan></text>
<text x="22" y="-22" class="key tr"><tspan style="font-size: 78%">&amp;ok_paste</tspan></text>
<text x="-22" y="22" class="key bl">3</text>
<text x="22" y="22" class="key br">:</text>
</g>
<g transform="translate(308, 154)" class="key keypos-29">
<rect rx="6" ry="6" x="-26" y="-26" width="52" height="52" class="key"/>
<text x="0" y="1" class="key tap">B</text>
<text x="-22" y="22" class="key bl">/</text>
<text x="22" y="22" class="key br">\</text>
</g>
<g transform="translate(532, 154)" class="key keypos-30">
<rect rx="6" ry="6" x="-26" y="-26" width="52" height="52" class="key"/>
<text x="0" y="1" class="key tap">,</text>
<text x="0" y="-22" class="key shifted">?</text>
<text x="-22" y="-22" class="key tl">Meh+K</text>
<text x="22" y="22" class="key br">?</text>
</g>
<g transform="translate(588, 147)" class="key keypos-31">
<rect rx="6" ry="6" x="-26" y="-26" width="52" height="52" class="key"/>
<text x="0" y="1" class="key tap">O</text>
<text x="-22" y="-22" class="key tl">Meh+L</text>
<text x="22" y="-22" class="key tr"><tspan style="font-size: 64%">&amp;ok_new_tab</tspan></text>
<text x="22" y="22" class="key br">{</text>
</g>
<g transform="translate(644, 140)" class="key keypos-32">
<rect rx="6" ry="6" x="-26" y="-26" width="52" height="52" class="key"/>
<text x="0" y="1" class="key tap">Y</text>
<text x="-22" y="-22" class="key tl">Meh+M</text>
<text x="22" y="-22" class="key tr"><tspan style="font-size: 64%">&amp;ok_new_win</tspan></text>
<text x="22" y="22" class="key br">}</text>
</g>
<g transform="translate(700, 147)" class="key keypos-33">
<rect rx="6" ry="6" x="-26" y="-26" width="52" height="52" class="key"/>
<text x="0" y="1" class="key tap">K</text>
<text x="-22" y="-22" class="key tl">Meh+N</text>
<text x="22" y="-22" class="key tr"><tspan style="font-size: 64%">&amp;ok_priv_w…</tspan></text>
<text x="22" y="22" class="key br">&lt;</text>
</g>
<g transform="translate(756, 161)" class="key keypos-34">
<rect rx="6" ry="6" x="-26" y="-26" width="52" height="52" class="key"/>
<text x="0" y="1" class="key tap">J</text>
<text x="-22" y="-22" class="key tl">Meh+O</text>
<text x="22" y="22" class="key br">&gt;</text>
</g>
<g transform="translate(812, 161)" class="key keypos-35">
<rect rx="6" ry="6" x="-26" y="-26" width="52" height="52" class="key"/>
<text x="0" y="1" class="key tap">RWIN</text>
</g>
<g transform="translate(224, 205)" class="key keypos-36">
<rect rx="6" ry="6" x="-26" y="-26" width="52" height="52" class="key"/>
<text x="0" y="1" class="key tap"><tspan style="font-size: 64%">&amp;ok_launch…</tspan></text>
<text x="0" y="22" class="key hold">App</text>
<text x="-22" y="22" class="key bl">.</text>
</g>
<g transform="translate(286, 213) rotate(15.0)" class="key keypos-37">
<rect rx="6" ry="6" x="-26" y="-26" width="52" height="52" class="key"/>
<text x="0" y="1" class="key tap">Magic</text>
<text x="0" y="22" class="key hold">Shift</text>
<text x="-22" y="22" class="key bl">0</text>
</g>
<g transform="translate(351, 224) rotate(30.0)" class="key keypos-38">
<rect rx="6" ry="6" x="-26" y="-40" width="52" height="80" class="key"/>
<text x="0" y="1" class="key tap">Bspc</text>
<text x="0" y="36" class="key hold">Nav</text>
<text x="0" y="-36" class="key shifted"><tspan style="font-size: 64%">&amp;ok_word_b…</tspan></text>
</g>
<g transform="translate(489, 224) rotate(-30.0)" class="key keypos-39">
<rect rx="6" ry="6" x="-26" y="-40" width="52" height="80" class="key"/>
<text x="0" y="1" class="key tap">Enter</text>
<text x="0" y="36" class="key hold">Nav</text>
</g>
<g transform="translate(554, 213) rotate(-15.0)" class="key keypos-40">
<rect rx="6" ry="6" x="-26" y="-26" width="52" height="52" class="key"/>
<text x="0" y="1" class="key tap">Spc</text>
<text x="0" y="22" class="key hold">Sym</text>
<text x="0" y="-22" class="key shifted"><tspan style="font-size: 88%">Sentence</tspan></text>
</g>
<g transform="translate(616, 205)" class="key keypos-41">
<rect rx="6" ry="6" x="-26" y="-26" width="52" height="52" class="key"/>
<text x="0" y="1" class="key tap">Smart</text>
<text x="0" y="22" class="key hold">Num</text>
</g>
</g>
</g>
<g transform="translate(10, 285)" class="layer-Combos">
<g transform="translate(0, 79)">
<g transform="translate(28, 49)" class="key keypos-0">
<rect rx="6" ry="6" x="-26" y="-26" width="52" height="52" class="key"/>
</g>
<g transform="translate(84, 49)" class="key keypos-1">
<rect rx="6" ry="6" x="-26" y="-26" width="52" height="52" class="key"/>
</g>
<g transform="translate(140, 35)" class="key keypos-2">
<rect rx="6" ry="6" x="-26" y="-26" width="52" height="52" class="key"/>
</g>
<g transform="translate(196, 28)" class="key keypos-3">
<rect rx="6" ry="6" x="-26" y="-26" width="52" height="52" class="key"/>
</g>
<g transform="translate(252, 35)" class="key keypos-4">
<rect rx="6" ry="6" x="-26" y="-26" width="52" height="52" class="key"/>
</g>
<g transform="translate(308, 42)" class="key keypos-5">
<rect rx="6" ry="6" x="-26" y="-26" width="52" height="52" class="key"/>
</g>
<g transform="translate(532, 42)" class="key keypos-6">
<rect rx="6" ry="6" x="-26" y="-26" width="52" height="52" class="key"/>
</g>
<g transform="translate(588, 35)" class="key keypos-7">
<rect rx="6" ry="6" x="-26" y="-26" width="52" height="52" class="key"/>
</g>
<g transform="translate(644, 28)" class="key keypos-8">
<rect rx="6" ry="6" x="-26" y="-26" width="52" height="52" class="key"/>
</g>
<g transform="translate(700, 35)" class="key keypos-9">
<rect rx="6" ry="6" x="-26" y="-26" width="52" height="52" class="key"/>
</g>
<g transform="translate(756, 49)" class="key keypos-10">
<rect rx="6" ry="6" x="-26" y="-26" width="52" height="52" class="key"/>
</g>
<g transform="translate(812, 49)" class="key keypos-11">
<rect rx="6" ry="6" x="-26" y="-26" width="52" height="52" class="key"/>
</g>
<g transform="translate(28, 105)" class="key keypos-12">
<rect rx="6" ry="6" x="-26" y="-26" width="52" height="52" class="key"/>
</g>
<g transform="translate(84, 105)" class="key keypos-13">
<rect rx="6" ry="6" x="-26" y="-26" width="52" height="52" class="key"/>
</g>
<g transform="translate(140, 91)" class="key keypos-14">
<rect rx="6" ry="6" x="-26" y="-26" width="52" height="52" class="key"/>
</g>
<g transform="translate(196, 84)" class="key keypos-15">
<rect rx="6" ry="6" x="-26" y="-26" width="52" height="52" class="key"/>
</g>
<g transform="translate(252, 91)" class="key keypos-16">
<rect rx="6" ry="6" x="-26" y="-26" width="52" height="52" class="key"/>
</g>
<g transform="translate(308, 98)" class="key keypos-17">
<rect rx="6" ry="6" x="-26" y="-26" width="52" height="52" class="key"/>
</g>
<g transform="translate(532, 98)" class="key keypos-18">
<rect rx="6" ry="6" x="-26" y="-26" width="52" height="52" class="key"/>
</g>
<g transform="translate(588, 91)" class="key keypos-19">
<rect rx="6" ry="6" x="-26" y="-26" width="52" height="52" class="key"/>
</g>
<g transform="translate(644, 84)" class="key keypos-20">
<rect rx="6" ry="6" x="-26" y="-26" width="52" height="52" class="key"/>
</g>
<g transform="translate(700, 91)" class="key keypos-21">
<rect rx="6" ry="6" x="-26" y="-26" width="52" height="52" class="key"/>
</g>
<g transform="translate(756, 105)" class="key keypos-22">
<rect rx="6" ry="6" x="-26" y="-26" width="52" height="52" class="key"/>
</g>
<g transform="translate(812, 105)" class="key keypos-23">
<rect rx="6" ry="6" x="-26" y="-26" width="52" height="52" class="key"/>
</g>
<g transform="translate(28, 161)" class="key keypos-24">
<rect rx="6" ry="6" x="-26" y="-26" width="52" height="52" class="key"/>
</g>
<g transform="translate(84, 161)" class="key keypos-25">
<rect rx="6" ry="6" x="-26" y="-26" width="52" height="52" class="key"/>
</g>
<g transform="translate(140, 147)" class="key keypos-26">
<rect rx="6" ry="6" x="-26" y="-26" width="52" height="52" class="key"/>
</g>
<g transform="translate(196, 140)" class="key keypos-27">
<rect rx="6" ry="6" x="-26" y="-26" width="52" height="52" class="key"/>
</g>
<g transform="translate(252, 147)" class="key keypos-28">
<rect rx="6" ry="6" x="-26" y="-26" width="52" height="52" class="key"/>
</g>
<g transform="translate(308, 154)" class="key keypos-29">
<rect rx="6" ry="6" x="-26" y="-26" width="52" height="52" class="key"/>
</g>
<g transform="translate(532, 154)" class="key keypos-30">
<rect rx="6" ry="6" x="-26" y="-26" width="52" height="52" class="key"/>
</g>
<g transform="translate(588, 147)" class="key keypos-31">
<rect rx="6" ry="6" x="-26" y="-26" width="52" height="52" class="key"/>
</g>
<g transform="translate(644, 140)" class="key keypos-32">
<rect rx="6" ry="6" x="-26" y="-26" width="52" height="52" class="key"/>
</g>
<g transform="translate(700, 147)" class="key keypos-33">
<rect rx="6" ry="6" x="-26" y="-26" width="52" height="52" class="key"/>
</g>
<g transform="translate(756, 161)" class="key keypos-34">
<rect rx="6" ry="6" x="-26" y="-26" width="52" height="52" class="key"/>
</g>
<g transform="translate(812, 161)" class="key keypos-35">
<rect rx="6" ry="6" x="-26" y="-26" width="52" height="52" class="key"/>
</g>
<g transform="translate(224, 205)" class="key keypos-36">
<rect rx="6" ry="6" x="-26" y="-26" width="52" height="52" class="key"/>
</g>
<g transform="translate(286, 213) rotate(15.0)" class="key keypos-37">
<rect rx="6" ry="6" x="-26" y="-26" width="52" height="52" class="key"/>
</g>
<g transform="translate(351, 224) rotate(30.0)" class="key keypos-38">
<rect rx="6" ry="6" x="-26" y="-40" width="52" height="80" class="key"/>
</g>
<g transform="translate(489, 224) rotate(-30.0)" class="key keypos-39">
<rect rx="6" ry="6" x="-26" y="-40" width="52" height="80" class="key"/>
</g>
<g transform="translate(554, 213) rotate(-15.0)" class="key keypos-40">
<rect rx="6" ry="6" x="-26" y="-26" width="52" height="52" class="key"/>
</g>
<g transform="translate(616, 205)" class="key keypos-41">
<rect rx="6" ry="6" x="-26" y="-26" width="52" height="52" class="key"/>
</g>
<g class="combo combopos-0">
<rect rx="6" ry="6" x="98" y="29" width="28" height="26" class="combo"/>
<text x="112" y="42" class="combo tap">Esc</text>
</g>
<g class="combo combopos-1">
<rect rx="6" ry="6" x="154" y="18" width="28" height="26" class="combo"/>
<text x="168" y="32" class="combo tap">
<tspan x="168" dy="-0.6em">Smart</tspan><tspan x="168" dy="1.2em">Mouse</tspan>
</text>
</g>
<g class="combo combopos-2">
<path d="M420,77 l373,-27" class="combo"/>
<path d="M420,77 l-373,27" class="combo"/>
<rect rx="6" ry="6" x="406" y="64" width="28" height="26" class="combo"/>
<text x="420" y="77" class="combo tap">Tab</text>
</g>
<g class="combo combopos-3">
<rect rx="6" ry="6" x="42" y="92" width="28" height="26" class="combo"/>
<text x="56" y="105" class="combo tap">Leader</text>
</g>
<g class="combo combopos-4">
<path d="M308,-56 h498 a6.0,6.0 0 0 1 6.0,6.0 v80" class="combo"/>
<path d="M308,-56 h-274 a6.0,6.0 0 0 0 -6.0,6.0 v136" class="combo"/>
<path d="M308,-56 h-218 a6.0,6.0 0 0 0 -6.0,6.0 v136" class="combo"/>
<rect rx="6" ry="6" x="294" y="-69" width="28" height="26" class="combo"/>
<text x="308" y="-56" class="combo tap">
<tspan x="308" dy="-0.6em">Shift+</tspan><tspan x="308" dy="1.2em">Leader</tspan>
</text>
</g>
<g class="combo combopos-5">
<path d="M756,142 h-50 a6.0,6.0 0 0 1 -6.0,-6.0 v-27" class="combo"/>
<path d="M756,142 h50 a6.0,6.0 0 0 0 6.0,-6.0 v-13" class="combo"/>
<rect rx="6" ry="6" x="742" y="129" width="28" height="26" class="combo"/>
<text x="756" y="142" class="combo tap">&amp;ok_cut</text>
</g>
<g class="combo combopos-6">
<rect rx="6" ry="6" x="714" y="85" width="28" height="26" class="combo"/>
<text x="728" y="98" class="combo tap"><tspan style="font-size: 88%">&amp;ok_copy</tspan></text>
</g>
<g class="combo combopos-7">
<rect rx="6" ry="6" x="770" y="92" width="28" height="26" class="combo"/>
<text x="784" y="105" class="combo tap"><tspan style="font-size: 78%">&amp;ok_paste</tspan></text>
</g>
<g class="combo combopos-8">
<rect rx="6" ry="6" x="546" y="26" width="28" height="26" class="combo"/>
<text x="560" y="38" class="combo tap">Bspc</text>
</g>
<g class="combo combopos-9">
<rect rx="6" ry="6" x="602" y="18" width="28" height="26" class="combo"/>
<text x="616" y="32" class="combo tap">Del</text>
</g>
<g class="combo combopos-10">
<rect rx="6" ry="6" x="266" y="82" width="28" height="26" class="combo"/>
<text x="280" y="94" class="combo tap">
<tspan x="280" dy="-0.6em">&lt;</tspan><tspan x="280" dy="1.2em">(</tspan>
</text>
</g>
<g class="combo combopos-11">
<path d="M420,98 l-93,0" class="combo"/>
<path d="M420,98 l93,0" class="combo"/>
<rect rx="6" ry="6" x="406" y="85" width="28" height="26" class="combo"/>
<text x="420" y="98" class="combo tap">
<tspan x="420" dy="-0.6em">&gt;</tspan><tspan x="420" dy="1.2em">)</tspan>
</text>
</g>
<g class="combo combopos-14">
<rect rx="6" ry="6" x="154" y="130" width="28" height="26" class="combo"/>
<text x="168" y="144" class="combo tap">
<tspan x="168" dy="-0.6em">{</tspan><tspan x="168" dy="1.2em">[</tspan>
</text>
</g>
<g class="combo combopos-15">
<rect rx="6" ry="6" x="210" y="130" width="28" height="26" class="combo"/>
<text x="224" y="144" class="combo tap">
<tspan x="224" dy="-0.6em">}</tspan><tspan x="224" dy="1.2em">]</tspan>
</text>
</g>
<g class="combo combopos-18">
<path d="M448,49 l-345,0" class="combo"/>
<path d="M448,49 l345,0" class="combo"/>
<rect rx="6" ry="6" x="434" y="36" width="28" height="26" class="combo"/>
<text x="448" y="49" class="combo tap">@</text>
</g>
<g class="combo combopos-19">
<path d="M84,70 l40,-25" class="combo"/>
<path d="M84,70 l-40,25" class="combo"/>
<rect rx="6" ry="6" x="70" y="57" width="28" height="26" class="combo"/>
<text x="84" y="70" class="combo tap">#</text>
</g>
<g class="combo combopos-20">
<path d="M140,66 l41,-28" class="combo"/>
<path d="M140,66 l-41,28" class="combo"/>
<rect rx="6" ry="6" x="126" y="54" width="28" height="26" class="combo"/>
<text x="140" y="66" class="combo tap">$</text>
</g>
<g class="combo combopos-21">
<path d="M196,63 l39,-20" class="combo"/>
<path d="M196,63 l-39,20" class="combo"/>
<rect rx="6" ry="6" x="182" y="50" width="28" height="26" class="combo"/>
<text x="196" y="63" class="combo tap">%</text>
</g>
<g class="combo combopos-22">
<path d="M756,70 l39,-14" class="combo"/>
<path d="M756,70 l-39,14" class="combo"/>
<rect rx="6" ry="6" x="742" y="57" width="28" height="26" class="combo"/>
<text x="756" y="70" class="combo tap">`</text>
</g>
<g class="combo combopos-23">
<path d="M392,105 l-345,0" class="combo"/>
<path d="M392,105 l345,0" class="combo"/>
<rect rx="6" ry="6" x="378" y="92" width="28" height="26" class="combo"/>
<text x="392" y="105" class="combo tap">\</text>
</g>
<g class="combo combopos-24">
<path d="M448,105 l-345,0" class="combo"/>
<path d="M448,105 l345,0" class="combo"/>
<rect rx="6" ry="6" x="434" y="92" width="28" height="26" class="combo"/>
<text x="448" y="105" class="combo tap">=</text>
</g>
<g class="combo combopos-25">
<path d="M84,126 l40,-25" class="combo"/>
<path d="M84,126 l-40,25" class="combo"/>
<rect rx="6" ry="6" x="70" y="113" width="28" height="26" class="combo"/>
<text x="84" y="126" class="combo tap">~</text>
</g>
<g class="combo combopos-26">
<path d="M252,63 l39,-14" class="combo"/>
<path d="M252,63 l-39,14" class="combo"/>
<rect rx="6" ry="6" x="238" y="50" width="28" height="26" class="combo"/>
<text x="252" y="63" class="combo tap">^</text>
</g>
<g class="combo combopos-27">
<path d="M392,66 l122,-21" class="combo"/>
<path d="M392,66 l-122,21" class="combo"/>
<rect rx="6" ry="6" x="378" y="54" width="28" height="26" class="combo"/>
<text x="392" y="66" class="combo tap">+</text>
</g>
<g class="combo combopos-28">
<path d="M448,66 l122,-27" class="combo"/>
<path d="M448,66 l-122,27" class="combo"/>
<rect rx="6" ry="6" x="434" y="54" width="28" height="26" class="combo"/>
<text x="448" y="66" class="combo tap">*</text>
</g>
<g class="combo combopos-29">
<path d="M588,63 l40,-25" class="combo"/>
<path d="M588,63 l-40,25" class="combo"/>
<rect rx="6" ry="6" x="574" y="50" width="28" height="26" class="combo"/>
<text x="588" y="63" class="combo tap">&amp;</text>
</g>
<g class="combo combopos-30">
<path d="M140,122 l41,-28" class="combo"/>
<path d="M140,122 l-41,28" class="combo"/>
<rect rx="6" ry="6" x="126" y="110" width="28" height="26" class="combo"/>
<text x="140" y="122" class="combo tap">_</text>
</g>
<g class="combo combopos-31">
<path d="M196,119 l39,-20" class="combo"/>
<path d="M196,119 l-39,20" class="combo"/>
<rect rx="6" ry="6" x="182" y="106" width="28" height="26" class="combo"/>
<text x="196" y="119" class="combo tap">-</text>
</g>
<g class="combo combopos-32">
<path d="M252,119 l39,-14" class="combo"/>
<path d="M252,119 l-39,14" class="combo"/>
<rect rx="6" ry="6" x="238" y="106" width="28" height="26" class="combo"/>
<text x="252" y="119" class="combo tap">/</text>
</g>
<g class="combo combopos-33">
<path d="M392,122 l122,-21" class="combo"/>
<path d="M392,122 l-122,21" class="combo"/>
<rect rx="6" ry="6" x="378" y="110" width="28" height="26" class="combo"/>
<text x="392" y="122" class="combo tap">|</text>
</g>
</g>
</g>
<text x="850.0" y="643.0" class="footer">urob/zmk-config</text></svg>
